<svg width="16" height="16" viewBox="0 0 16 16" fill="none" xmlns="http://www.w3.org/2000/svg">
<path d="M13.7143 1.33331H2.28278C1.75897 1.33331 1.33337 1.76486 1.33337 2.29462V13.7053C1.33337 14.2351 1.75897 14.6666 2.28278 14.6666H13.7143C14.2381 14.6666 14.6667 14.2351 14.6667 13.7053V2.29462C14.6667 1.76486 14.2381 1.33331 13.7143 1.33331ZM5.36314 12.7619H3.38695V6.39879H5.36611V12.7619H5.36314ZM4.37504 5.52974C3.74111 5.52974 3.22921 5.01486 3.22921 4.38391C3.22921 3.75296 3.74111 3.23808 4.37504 3.23808C5.00599 3.23808 5.52087 3.75296 5.52087 4.38391C5.52087 5.01784 5.00897 5.52974 4.37504 5.52974V5.52974ZM12.7709 12.7619H10.7947V9.66665C10.7947 8.92855 10.7798 7.97915 9.7679 7.97915C8.73814 7.97915 8.5804 8.78272 8.5804 9.61308V12.7619H6.60421V6.39879H8.50004V7.26784H8.52683C8.79171 6.76784 9.43754 6.24105 10.3989 6.24105C12.3989 6.24105 12.7709 7.5595 12.7709 9.27379V12.7619V12.7619Z" fill="white"/>
</svg>
