<svg width="17" height="16" viewBox="0 0 17 16" fill="none" xmlns="http://www.w3.org/2000/svg">
<path d="M2.10238 4.70721L8.49997 7.90561L14.8976 4.70721C14.8739 4.29957 14.6952 3.9164 14.3982 3.63619C14.1012 3.35598 13.7083 3.19994 13.3 3.20001H3.69998C3.29164 3.19994 2.89873 3.35598 2.60172 3.63619C2.3047 3.9164 2.12606 4.29957 2.10238 4.70721Z" fill="#1E1F26"/>
<path d="M14.9 6.49441L8.49997 9.69441L2.09998 6.49441V11.2C2.09998 11.6244 2.26855 12.0313 2.5686 12.3314C2.86866 12.6314 3.27563 12.8 3.69998 12.8H13.3C13.7243 12.8 14.1313 12.6314 14.4313 12.3314C14.7314 12.0313 14.9 11.6244 14.9 11.2V6.49441Z" fill="#1E1F26"/>
</svg>
